/* XPM */
static char *result[] = {
/* columns rows colors chars-per-pixel */
"48 32 32 1 ",
"  c #012A9D",
". c #117AFE",
"X c #0083FF",
"o c #0889FF",
"O c #0092FF",
"+ c #0F9BFF",
"@ c #0FA4FF",
"# c #21AFFE",
"$ c #34B7FF",
"% c #5BA5FF",
"& c #5AB9FF",
"* c #63B1FF",
"= c #76BBFF",
"- c #3DC0FF",
"; c #57C8FF",
": c #62D2FF",
"> c #75DAFE",
", c #81CDFF",
"< c #91CCFD",
"1 c #8FD8FF",
"2 c #8FDEFF",
"3 c #95DCF1",
"4 c #ADD7FF",
"5 c #84E0FF",
"6 c #93E3FE",
"7 c #A5E8FE",
"8 c #B9E4FF",
"9 c #B3EDFE",
"0 c #BBEBFE",
"q c #CAF2FE",
"w c #DCF4FB",
"e c None",
/* pixels */
"eeeeeeeeeeeeeeeeeeeeeeeeeeeeeeeeeeeeeeeeeeeeeeee",
"eeeeeeeeeeeeeeeeeeeeeeeeeeeeeeeeeeeeeeeeeeeeeeee",
"eeeeeeeeeeeeeeeeeeeeeeeeeeeeeeeeeeeeeeeeeeeeeeee",
"eeeeeeeeeeeeeeee              eeeeeeeeeeeeeeeeee",
"eeeeeeeeeeeeeee   wwwwwwwwww   eeeeeeeeeeeeeeeee",
"eeeeeeeeeeeeee wwwwwwqqqqqqqqqq eeeeeeeeeeeeeeee",
"eeeeeeeeeeeee wqqqqqq99999909099 eeeeeeeeeeeeeee",
"eeeeeeeeeeee 99999977777777779999 eeeeeeeeeeeeee",
"eeeeeeeeeee 0776666666667777777622 eeeeeeeeeeeee",
"eeeeeeeeee 906>>>55566666255>>:::,: eeeeeeeeeeee",
"eeeeeeeee 3779>>>55>>>:::::;;---,$:> eeeeeeeeeee",
"eeeeeeee 366660::::;;;-------$$,@&::> eeeeeeeeee",
"eeeeeeee 555556wq81,----$$&,,,==#$::: eeeeeeeeee",
"eeeeeeee 6555>779qqqq084<<&@@+X=#-::: eeeeeeeeee",
"eeeeeeee 965>>966799777=@@@@+oo+--::5 eeeeeeeeee",
"eeeeeeee w95>6666666666=@@@@OOOO&-:>3 eeeeeeeeee",
"eeeeeeeee w7576655>5666=@@@OOOOO@-:3 eeeeeeeeeee",
"eeeeeeeeee w955>:>>>566=@@+OOOO++&3 eeeeeeeeeeee",
"eeeeeeeeeee q7>::>>:>56=@+++++++@& eeeeeeeeeeeee",
"eeeeeeeeeeee ,=,126>>>5<@@+*=*%%% eeeeeeeeeeeeee",
"eeeeeeeeeeeee #@@#&,,174*=%X...o eeeeeeeeeeeeeee",
"eeeeeeeeeeeeee ##$-$#@#%......O eeeeeeeeeeeeeeee",
"eeeeeeeeeeeeeee #----##%....X+ eeeeeeeeeeeeeeeee",
"eeeeeeeeeeeeeeee -;:;-$%Xooo@ eeeeeeeeeeeeeeeeee",
"eeeeeeeeeeeeeeeee :::;-%OOO@ eeeeeeeeeeeeeeeeeee",
"eeeeeeeeeeeeeeeeee :::;%++@ eeeeeeeeeeeeeeeeeeee",
"eeeeeeeeeeeeeeeeeee >>:*@@ eeeeeeeeeeeeeeeeeeeee",
"eeeeeeeeeeeeeeeeeeee >:&@ eeeeeeeeeeeeeeeeeeeeee",
"eeeeeeeeeeeeeeeeeeeee >& eeeeeeeeeeeeeeeeeeeeeee",
"eeeeeeeeeeeeeeeeeeeeee  eeeeeeeeeeeeeeeeeeeeeeee",
"eeeeeeeeeeeeeeeeeeeeeeeeeeeeeeeeeeeeeeeeeeeeeeee",
"eeeeeeeeeeeeeeeeeeeeeeeeeeeeeeeeeeeeeeeeeeeeeeee"
};
